HIERARCHY
ROOT hip
{
  OFFSET 0 0 0
  CHANNELS 6 Xposition Yposition Zposition Zrotation Yrotation Xrotation
  JOINT abdomen
  {
    OFFSET 0 20.6881 -0.73152
    CHANNELS 3 Zrotation Xrotation Yrotation
    JOINT chest
    {
      OFFSET 0 11.7043 -0.48768
      CHANNELS 3 Zrotation Xrotation Yrotation
      JOINT neck
      {
        OFFSET 0 22.1894 -2.19456
        CHANNELS 3 Zrotation Xrotation Yrotation
        JOINT head
        {
          OFFSET -0.24384 7.07133 1.2192
          CHANNELS 3 Zrotation Xrotation Yrotation
          JOINT leftEye
          {
            OFFSET 4.14528 8.04674 8.04672
            CHANNELS 3 Zrotation Xrotation Yrotation
            End Site
            {
              OFFSET 1 0 0
            }
          }
          JOINT rightEye
          {
            OFFSET -3.6576 8.04674 8.04672
            CHANNELS 3 Zrotation Xrotation Yrotation
            End Site
            {
              OFFSET 1 0 0
            }
          }
        }
      }
      JOINT rCollar
      {
        OFFSET -2.68224 19.2634 -4.8768
        CHANNELS 3 Zrotation Xrotation Yrotation
        JOINT rShldr
        {
          OFFSET -8.77824 -1.95073 1.46304
          CHANNELS 3 Zrotation Xrotation Yrotation
          JOINT rForeArm
          {
            OFFSET -28.1742 -1.7115 0.48768
            CHANNELS 3 Zrotation Xrotation Yrotation
            JOINT rHand
            {
              OFFSET -22.5879 0.773209 7.07136
              CHANNELS 3 Zrotation Xrotation Yrotation
              JOINT rThumb1
              {
                OFFSET -1.2192 -0.487915 3.41376
                CHANNELS 3 Zrotation Xrotation Yrotation
                JOINT rThumb2
                {
                  OFFSET -3.37035 -0.52449 3.41376
                  CHANNELS 3 Zrotation Xrotation Yrotation
                  End Site
                  {
                    OFFSET -1.78271 -1.18214 1.43049
                  }
                }
              }
              JOINT rIndex1
              {
                OFFSET -7.75947 0.938293 5.60832
                CHANNELS 3 Zrotation Xrotation Yrotation
                JOINT rIndex2
                {
                  OFFSET -2.54057 -0.884171 1.56538
                  CHANNELS 3 Zrotation Xrotation Yrotation
                  End Site
                  {
                    OFFSET -1.62519 -0.234802 1.16502
                  }
                }
              }
              JOINT rMid1
              {
                OFFSET -8.24714 1.18213 3.41376
                CHANNELS 3 Zrotation Xrotation Yrotation
                JOINT rMid2
                {
                  OFFSET -3.10165 -0.590103 1.0647
                  CHANNELS 3 Zrotation Xrotation Yrotation
                  End Site
                  {
                    OFFSET -2.48547 -0.328903 0.83742
                  }
                }
              }
              JOINT rRing1
              {
                OFFSET -8.82822 0.546677 1.51678
                CHANNELS 3 Zrotation Xrotation Yrotation
                JOINT rRing2
                {
                  OFFSET -2.60934 -0.819778 -0.0198488
                  CHANNELS 3 Zrotation Xrotation Yrotation
                  End Site
                  {
                    OFFSET -2.33842 -0.294052 0.168128
                  }
                }
              }
              JOINT rPinky1
              {
                OFFSET -8.27202 -0.0477905 -0.4584
                CHANNELS 3 Zrotation Xrotation Yrotation
                JOINT rPinky2
                {
                  OFFSET -1.82734 -0.647385 -0.700984
                  CHANNELS 3 Zrotation Xrotation Yrotation
                  End Site
                  {
                    OFFSET -1.69225 -0.51767 -0.607171
                  }
                }
              }
            }
          }
        }
      }
      JOINT lCollar
      {
        OFFSET 2.68224 19.2634 -4.8768
        CHANNELS 3 Zrotation Xrotation Yrotation
        JOINT lShldr
        {
          OFFSET 8.77824 -1.95073 1.46304
          CHANNELS 3 Zrotation Xrotation Yrotation
          JOINT lForeArm
          {
            OFFSET 28.1742 -1.7115 0.48768
            CHANNELS 3 Zrotation Xrotation Yrotation
            JOINT lHand
            {
              OFFSET 22.5879 0.773209 7.07136
              CHANNELS 3 Zrotation Xrotation Yrotation
              JOINT lThumb1
              {
                OFFSET 1.2192 -0.487915 3.41376
                CHANNELS 3 Zrotation Xrotation Yrotation
                JOINT lThumb2
                {
                  OFFSET 3.37035 -0.52449 3.41376
                  CHANNELS 3 Zrotation Xrotation Yrotation
                  End Site
                  {
                    OFFSET 1.78271 -1.18214 1.43049
                  }
                }
              }
              JOINT lIndex1
              {
                OFFSET 7.75947 0.938293 5.60832
                CHANNELS 3 Zrotation Xrotation Yrotation
                JOINT lIndex2
                {
                  OFFSET 2.54057 -0.884171 1.56538
                  CHANNELS 3 Zrotation Xrotation Yrotation
                  End Site
                  {
                    OFFSET 1.62519 -0.234802 1.16502
                  }
                }
              }
              JOINT lMid1
              {
                OFFSET 8.24714 1.18213 3.41376
                CHANNELS 3 Zrotation Xrotation Yrotation
                JOINT lMid2
                {
                  OFFSET 3.10165 -0.590103 1.0647
                  CHANNELS 3 Zrotation Xrotation Yrotation
                  End Site
                  {
                    OFFSET 2.48547 -0.328903 0.83742
                  }
                }
              }
              JOINT lRing1
              {
                OFFSET 8.82822 0.546677 1.51678
                CHANNELS 3 Zrotation Xrotation Yrotation
                JOINT lRing2
                {
                  OFFSET 2.60934 -0.819778 -0.0198488
                  CHANNELS 3 Zrotation Xrotation Yrotation
                  End Site
                  {
                    OFFSET 2.33842 -0.294052 0.168128
                  }
                }
              }
              JOINT lPinky1
              {
                OFFSET 8.27202 -0.0477905 -0.4584
                CHANNELS 3 Zrotation Xrotation Yrotation
                JOINT lPinky2
                {
                  OFFSET 1.82734 -0.647385 -0.700984
                  CHANNELS 3 Zrotation Xrotation Yrotation
                  End Site
                  {
                    OFFSET 1.69225 -0.51767 -0.607171
                  }
                }
              }
            }
          }
        }
      }
    }
  }
  JOINT rButtock
  {
    OFFSET -8.77824 4.35084 1.2192
    CHANNELS 3 Zrotation Xrotation Yrotation
    JOINT rThigh
    {
      OFFSET 0 -1.70687 -2.19456
      CHANNELS 3 Zrotation Xrotation Yrotation
      JOINT rShin
      {
        OFFSET 0 -36.8199 0.73152
        CHANNELS 3 Zrotation Xrotation Yrotation
        JOINT rFoot
        {
          OFFSET 0.73152 -45.1104 -5.12064
          CHANNELS 3 Zrotation Xrotation Yrotation
          End Site
          {
            OFFSET -1.1221 -3.69964 12.103
          }
        }
      }
    }
  }
  JOINT lButtock
  {
    OFFSET 8.77824 4.35084 1.2192
    CHANNELS 3 Zrotation Xrotation Yrotation
    JOINT lThigh
    {
      OFFSET 0 -1.70687 -2.19456
      CHANNELS 3 Zrotation Xrotation Yrotation
      JOINT lShin
      {
        OFFSET 0 -36.8199 0.73152
        CHANNELS 3 Zrotation Xrotation Yrotation
        JOINT lFoot
        {
          OFFSET -0.73152 -45.1104 -5.12064
          CHANNELS 3 Zrotation Xrotation Yrotation
          End Site
          {
            OFFSET 1.1221 -3.69964 12.103
          }
        }
      }
    }
  }
}
MOTION
Frames:	9
Frame Time:	0.03333
0.0 0.0 0.0 0.0 0.0 0.0 0.0 0.0 0.0 0.0 0.0 0.0 0.0 0.0 0.0 0.0 0.0 0.0 0.0 0.0 0.0 0.0 0.0 0.0 0.0 0.0 0.0 0.0 0.0 0.0 0.0 0.0 0.0 0.0 0.0 0.0 0.0 0.0 0.0 0.0 0.0 0.0 0.0 0.0 0.0 0.0 0.0 0.0 0.0 0.0 0.0 0.0 0.0 0.0 0.0 0.0 0.0 0.0 0.0 0.0 0.0 0.0 0.0 0.0 0.0 0.0 0.0 0.0 0.0 0.0 0.0 0.0 0.0 0.0 0.0 0.0 0.0 0.0 0.0 0.0 0.0 0.0 0.0 0.0 0.0 0.0 0.0 0.0 0.0 0.0 0.0 0.0 0.0 0.0 0.0 0.0 0.0 0.0 0.0 0.0 0.0 0.0 0.0 0.0 0.0 0.0 0.0 0.0 0.0 0.0 0.0 0.0 0.0 0.0 0.0 0.0 0.0 0.0 0.0 0.0 0.0 0.0 0.0 0.0 0.0 0.0 0.0 0.0 0.0 0.0 0.0 0.0
2.947 60.8741 -3.418 176.524407 11.911948 -171.434651 -7.120962 11.7708 1.167987 3.523926 -12.375889 -6.744139 7.352504 22.749945 88.921068 -43.67209 7.122468 -109.854885 -0.000398 -0.0 0.000552 -0.000398 -0.0 0.000552 4.238987 -44.742792 -8.647667 53.554955 -84.683834 -8.667879 -157.464443 72.322848 -141.182713 -6.957856 31.576736 2.148976 12.713401 -12.674013 -0.553143 0.565516 -7.066814 -9.663656 -50.386884 40.826445 40.024325 4.915646 2.561422 -2.396632 -0.569764 1.648587 0.321959 -7.302313 26.197628 6.028706 -145.122822 1.121443 -179.480449 11.368526 18.257469 -6.877573 -133.877527 -15.640034 -131.334926 -82.179836 -52.479795 -82.171773 159.221881 -48.725185 -170.56648 -99.626007 24.065229 103.655824 -102.407273 22.441599 -14.804783 36.979872 29.029985 -17.167209 -83.254238 -50.257717 -33.615845 91.865045 38.728633 -54.601037 46.207971 39.651925 -36.319829 -6.733522 0.010798 2.552376 167.375995 -28.008667 -145.26755 163.43539 -4.985746 -142.997112 71.926442 72.97206 -89.772982 -5.864158 0.011859 4.467495 110.055139 -41.782154 108.12708 154.109202 36.358941 146.665238 -179.952578 75.750622 -0.036551 154.41108 9.141947 3.814323 62.612821 70.55157 131.690159 -42.214592 52.876201 151.929701 0.000162 -0.000984 -0.000208 13.89942 -13.98596 91.902987 77.372602 10.25613 1.709702 80.291754 -82.521299 -24.558987
4.5919 61.170100000000005 -5.2387999999999995 178.969661 16.754759 -171.436931 -5.04996 13.194079 21.163974 -0.248842 -13.089666 -26.278338 -14.182946 26.087798 -85.296125 48.065281 9.617822 62.973924 -0.003865 0.0 -0.002037 0.001758 -0.0 -0.003098 -9.651508 34.836164 11.199391 56.001274 -21.385884 62.880449 -36.682665 -1.877135 45.796252 4.783225 -4.642584 2.779615 6.463837 -6.452601 -0.63468 -133.778644 -30.678408 119.461071 -0.327625 0.52986 0.186385 87.343312 -60.112875 35.998103 -4.681129 12.536426 2.932099 -2.095488 14.749242 2.649015 -73.163683 -72.142956 -90.197903 -79.223492 83.199453 97.069167 12.986236 44.34439 10.765344 0.652522 -2.793693 -1.216136 150.169124 21.535379 -155.275566 75.006098 -4.412325 13.685496 -129.526215 -55.267714 128.04409 18.964151 -4.337902 1.145185 0.442409 0.434909 -0.069897 104.198526 9.203117 -95.132372 140.685215 1.506764 -116.184389 169.033941 -26.71512 -118.485195 -0.541054 -1.589992 0.294502 -175.165254 -56.707949 -138.434236 7.4e-05 0.063796 -0.019914 148.219089 -76.780273 171.085137 0.670064 -1.718136 0.619489 -44.765367 83.52074 7.334687 8.4e-05 -0.000498 0.000169 -37.843985 -58.398902 -121.463016 -74.543862 14.068198 -2.610851 66.231156 40.642259 18.215782 -0.000371 -0.000498 -0.000185 15.081665 -20.91679 -180.0 121.376513 -76.70869 84.167769 -33.706031 -15.367336 -145.841742
6.3998 61.248999999999995 -7.5616 -177.535785 22.010201 -171.193676 -0.120424 15.566244 -0.0 3.331354 -12.715343 -3.984503 -13.524623 21.662058 -61.71338 44.36797 -6.000426 51.268974 -0.001506 0.0 -0.000708 -0.001506 0.0 -0.000708 -142.97391 39.431468 147.389622 -50.106776 -87.460284 -10.446293 -164.571516 78.473202 82.361233 158.237218 -35.60519 139.282441 -93.743391 37.962849 53.548536 -26.820892 -8.307456 34.329455 -50.386568 40.827026 40.023879 -6.964935 19.000266 2.246071 -164.637809 -19.28349 144.734378 -7.538398 26.105749 6.438103 -72.35148 72.974078 90.218481 -48.79928 -81.473597 -65.681773 -103.684227 -45.139623 -101.854 -146.326374 11.162937 -142.298821 40.825369 -86.09693 62.369024 32.360823 -39.941702 121.558139 0.459599 13.719311 135.878325 162.810174 11.253256 -139.292667 89.136555 38.427113 -50.298797 28.746917 -6.360197 -35.697964 -10.745931 -19.048372 4.723909 -19.531088 -8.455291 1.927572 111.804927 56.306046 -102.278288 42.189453 58.400429 -36.457981 -0.006392 1.174611 -0.368758 -9.065418 13.408233 -1.766316 154.162194 45.105884 148.90915 -45.344164 80.17469 9.570469 -0.0071 0.001093 -0.00355 -29.37305 -57.2484 54.560105 67.205419 -12.324455 -75.312873 -121.80468 17.258346 37.718916 179.978923 75.748549 0.014421 -159.04812 45.585153 -28.193836 -113.951997 62.189135 14.808567 4.66774 29.377987 100.551599
8.319899999999999 61.285599999999995 -10.396700000000001 -174.746116 27.708653 -170.615081 1.733539 12.649466 172.13121 -4.606795 7.558744 -175.331752 7.702356 21.883686 87.840925 -42.806982 3.009949 -93.731289 0.003061 0.0 0.000944 -0.002876 0.0 -0.001844 -150.119444 21.701135 155.219797 150.186448 -17.838181 -163.276649 -3.74984 -1.486932 49.638178 -5.811505 29.715295 2.091112 -17.202018 15.600122 4.930054 -30.256157 18.220492 33.68544 -81.655576 42.619552 68.126024 -174.189867 -26.080063 113.346598 -159.364757 -2.685722 142.596914 143.617927 -74.419045 111.803911 -13.618339 -53.679803 -25.682412 12.619485 23.103395 1.043304 -148.608568 23.708993 -144.775487 -155.90413 37.092629 -146.022942 5.825714 24.937027 -6.991035 -75.24205 13.166669 -95.231312 113.212315 -50.517744 -85.765648 179.205075 -33.149488 -146.810776 -2.860152 -2.842012 0.370166 -23.721909 -42.829483 18.399326 -5.92078 -10.174759 2.968443 -91.231279 -60.760823 -38.093976 166.119705 -24.039635 -145.077721 154.015812 19.931139 -138.345413 145.11653 -0.356208 179.016017 -11.991028 52.753914 2.723236 157.332099 57.246184 150.511204 -10.005546 24.889374 -4.159177 -0.004913 -0.001657 -0.002456 -16.879148 -57.673191 -131.940188 -79.383185 -1.149207 -116.21986 -147.445303 13.743214 -171.997906 -179.989988 75.750678 -0.00685 -165.394535 33.318936 114.277386 118.786933 -23.465972 95.504737 -108.481327 -7.416773 171.709136
10.338899999999999 61.1159 -13.689000000000002 -173.482163 34.10733 -170.178939 1.413409 13.813905 174.100178 -4.452643 7.81665 -175.669387 -13.490883 20.741904 -61.107294 44.803838 -3.237657 60.95115 0.002976 0.0 0.003732 0.002976 0.0 0.003732 -153.592635 -75.693579 -178.262536 143.406553 57.221748 -89.733597 -0.271369 0.47404 49.775391 -7.209456 34.982999 2.707751 -12.306079 11.514591 3.095433 -18.8666 15.128649 22.460724 88.792032 -75.499209 40.048961 163.18747 -58.583925 95.751837 23.902303 -61.334108 1.397851 174.832681 -56.66054 138.238109 -145.118133 0.310318 -179.225295 11.581844 58.796251 -1.6661 3.326515 9.393809 3.030132 1.955075 -0.957587 -0.297473 -0.03497 -0.209486 0.045865 99.144709 -30.96671 -99.135909 -120.752736 -58.68274 121.00301 21.714774 24.558155 -4.18744 -66.258318 -46.84242 -22.116888 138.525964 9.567026 -108.892536 -159.642772 -69.973634 -102.39721 129.305851 30.057943 -106.937716 39.28792 53.366365 -32.877835 -3.381994 0.078772 -0.08676 -0.000644 0.063827 -0.019695 -10.767023 -6.942992 0.912497 -16.819615 58.946266 -12.651448 -66.094945 85.422843 28.749629 -179.997435 75.7506 -0.001755 172.895752 20.143035 -44.083401 -44.663189 66.557734 141.922685 83.340097 78.07517 -171.027227 -4e-06 0.000787 2e-06 19.324075 -52.979458 -156.288866 166.22403 -72.650294 -78.437693 125.75322 57.632771 -45.16005
12.3302 60.783699999999996 -17.3213 -172.788931 41.642346 -170.041559 0.098719 14.542607 179.241278 -3.352311 8.419012 -178.356043 7.224656 21.821369 93.805504 -41.048348 3.899322 -88.665339 -0.001027 0.0 -0.001281 -0.000728 -0.0 0.002362 -142.973952 39.431878 147.390636 -53.555735 6.236996 -5.673858 68.468424 37.715957 -127.557616 174.765049 10.476742 149.36212 -68.055309 37.899693 35.359873 29.637941 -28.093285 16.796829 -160.016259 -33.012018 122.69696 -17.930785 42.673579 8.916343 78.538666 -80.918306 49.688526 -167.572411 -17.303659 144.0216 -66.266652 72.867323 83.837868 -80.227414 -82.623044 -97.38092 -124.148399 -29.859201 -121.937787 12.03822 26.521729 4.466415 149.904973 22.421495 -154.974636 48.612052 30.951517 60.060247 -165.598815 -42.495162 77.887902 14.600993 15.341114 -0.137646 12.609422 11.778198 -3.199955 -13.881756 -14.283751 1.574527 153.452646 -21.068204 -121.743775 158.743369 -11.11424 -119.550209 160.673741 -6.667889 -143.24466 -11.537252 -24.897434 1.139978 145.12333 1.974179 179.748377 150.828028 -33.72326 173.391809 -1.244002 3.334762 -1.140168 128.827666 -29.16042 127.095984 -0.007372 -0.000794 -0.005529 -10.686432 -54.833992 -180.0 -55.994882 -61.10647 70.970228 -71.720545 -38.63529 15.725336 0.000623 0.000211 -0.000801 22.889757 -60.535588 20.405231 -140.017064 69.882361 13.792868 96.058917 -24.365762 176.964582
14.3225 60.8634 -20.9906 -172.672706 50.588033 -170.389972 -2.081645 19.439108 -0.0 2.437787 -13.425782 4.441828 -13.679891 25.945287 -98.64407 41.666708 24.86474 99.899274 0.003275 -0.0 -0.000716 -0.002127 -0.0 0.000805 0.034571 -0.209534 -0.045724 -102.322776 -4.323601 124.216513 5.069363 47.410399 -89.074898 154.718081 -37.550845 138.480001 -21.275421 18.734916 6.680488 -25.705741 15.259457 31.175979 -19.170661 24.114875 13.379892 -153.579285 2.190198 109.391841 -10.975888 25.78995 7.639692 -136.518819 46.282701 125.009636 -145.119443 0.267844 -179.21227 -141.830785 -56.542266 -163.972837 12.632386 42.933973 10.533916 -148.541074 13.058812 -143.696348 -4.230936 -44.380089 8.573959 -17.83222 52.732804 -97.964559 97.280392 -40.149202 -64.93123 -58.069953 -71.390049 -42.757605 -93.028617 -51.084137 -40.500655 137.905855 18.436297 -99.57808 46.208099 39.652734 -36.318738 161.982906 -7.275414 -112.000408 -12.028984 -37.299274 3.216705 154.186918 20.057902 -138.672948 145.101215 -1.520994 178.649921 -12.261928 41.973138 4.210023 45.218527 -48.151279 43.99301 165.914826 69.752097 147.447691 179.990032 75.749813 0.00682 174.393855 24.498853 -66.590567 -81.817633 37.977744 -69.600766 -108.882232 64.587658 -149.291662 0.000526 -0.00079 -0.000676 32.115702 -64.51701 -0.0 -94.936073 60.235673 178.362997 -11.542219 12.581191 -76.045002
16.6286 61.3857 -24.6157 -173.418213 60.473681 -171.525755 -3.940202 14.091225 -164.203476 2.197836 8.550786 172.272233 -12.765587 26.802941 -104.757991 37.484255 28.40548 111.675719 -0.002123 -0.0 0.000868 0.00356 -0.0 -0.000591 -159.221025 -48.724951 170.567788 0.578361 -12.154732 -64.909628 6.036137 -5.241463 -97.166934 151.449134 -40.118753 137.123354 -8.202881 7.848467 1.807429 -4.983232 6.048349 9.099468 -108.427852 34.161125 91.742935 12.443119 -10.975191 -7.453936 7.903627 -24.807673 -3.013992 -56.057425 62.313195 49.199608 -145.111804 -0.667564 -178.916905 11.870497 26.286951 -6.007872 -161.708467 70.564109 -151.023752 -94.922877 -50.638661 -93.18738 158.465044 -30.012018 -166.911426 75.762016 -9.284435 108.136962 -49.428044 -4.47642 -173.467751 174.891597 42.576217 -148.798208 93.743796 37.963731 -53.548432 133.917545 -20.606555 -77.527982 -0.183656 -0.300907 0.102749 151.096801 1.26277 -109.106145 167.29908 -27.767828 -145.257903 170.539603 -26.267142 -143.886711 72.963353 -72.145712 89.988889 -14.076933 27.064861 0.972955 7.14207 -15.707874 6.727697 -10.373755 24.720692 -5.868064 -179.99648 75.749801 -0.003632 171.52576 27.687388 17.778705 57.516529 53.06275 -37.211351 48.089506 -56.466581 -22.307732 0.003361 -0.001842 0.00336 38.199267 -65.222275 -180.0 80.836182 -43.889014 141.93829 -153.360369 59.667249 -152.326174
